<svg width="14" height="13" viewBox="0 0 14 13" fill="none" xmlns="http://www.w3.org/2000/svg">
<path d="M3.17737 10.4043C2.4564 10.708 1.6872 10.9012 0.899668 10.9764C0.847661 10.9815 0.795182 10.9724 0.748639 10.9503C0.702096 10.9281 0.663504 10.8939 0.637574 10.8517C0.053787 9.89623 -0.137937 8.70806 0.0990251 7.40455C0.400613 5.72164 1.38436 4.03741 2.86717 2.65988C4.34997 1.28302 6.16596 0.370223 7.97621 0.0895164C9.51071 -0.147184 10.8959 0.0895165 11.9679 0.752276C12.0116 0.779066 12.0459 0.817093 12.0667 0.861707C12.0875 0.90632 12.0938 0.955586 12.0849 1.00348C12.0759 1.05137 12.0522 1.09581 12.0165 1.13137C11.9808 1.16692 11.9347 1.19205 11.8839 1.20367C11.3791 1.31569 10.8872 1.47171 10.4148 1.67041C8.9499 2.28916 7.07575 3.61201 6.47545 6.40241C6.064 8.29467 4.9553 9.64153 3.17737 10.4043ZM13.3617 2.14714C13.3359 2.10519 13.2975 2.07109 13.2513 2.04897C13.205 2.02684 13.1528 2.01763 13.101 2.02246C12.3126 2.09713 11.5428 2.29049 10.8219 2.59454C9.04397 3.35731 7.93528 4.7035 7.52742 6.5951C6.9264 9.38549 5.05368 10.709 3.58811 11.3271C3.11562 11.5258 2.62374 11.6818 2.11894 11.7938C2.06691 11.8048 2.01956 11.8299 1.98292 11.866C1.94627 11.902 1.92198 11.9473 1.91314 11.9962C1.90429 12.045 1.91128 12.0953 1.93322 12.1404C1.95516 12.1856 1.99106 12.2237 2.03637 12.2499C2.83557 12.7446 3.80784 13 4.88709 13C5.26896 12.999 5.65009 12.9689 6.02666 12.91C7.83762 12.6293 9.65289 11.7165 11.1357 10.3396C12.6192 8.96277 13.6015 7.27653 13.9038 5.59496C14.1358 4.29144 13.9455 3.10261 13.3617 2.14781V2.14714Z" fill="#D2B17F"/>
</svg>
