<?xml version="1.0" standalone="no"?><!DOCTYPE svg PUBLIC "-//W3C//DTD SVG 1.1//EN" "http://www.w3.org/Graphics/SVG/1.1/DTD/svg11.dtd"><svg class="icon" width="200px" height="200.00px" viewBox="0 0 1024 1024" version="1.1" xmlns="http://www.w3.org/2000/svg"><path d="M444.3 608.8c9.6 16.6 23.4 30.4 41.7 35.7 29.1 8.5 55.9-0.7 70.7-10 22.2-14 39.6-36.6 49-63.8 19.7-56.8-2-116.1-48.3-132.1-20.8-7.2-43.4-4.8-64.6 6.5-24.1-32-60.6-46.7-93.1-36.2-44.3 14.3-66.1 70.1-48.6 124.3 14.6 45.3 49.9 77 93.2 75.6z m-18.8-138c-3.6-19.2-17.3-35.4-25.1-42.2 1.1-0.5 2.2-1.1 3.2-1.5 6.7 3.1 47.4 32.7 33.9 85.9-5.5 16.1-7.4 32.3-6.6 47.7-3.4-6.4-4.8-11.3-4.8-11.3-5.5-21.8 5.1-48.2-0.6-78.6z m88.5 70.6c-5.8-29.2 12.7-67.1 39.3-84.7 1.4 0.5 2.5 1.3 3.8 1.9-24.3 25.5-31.3 56-27.8 77.2 8.3 50-11.2 78.6-37.8 91.3-1.6-0.6-2.9-1.5-4.4-2.2 5-3.8 37.4-33 26.9-83.5z m74.5 23.4c-8.1 23.3-22.8 42.6-41.5 54.4-12.8 8.1-26.3 11.7-39.4 11 21.4-14.2 42.2-40.7 32.5-95.5-3-17 3.7-49.1 26.4-70.5 25.9 19.4 36 60.4 22 100.6z m-47.1-111.6c-28 22.4-44.7 57.1-38.2 89.7 0.6 3.8 10.1 43.5-26.5 75.9-25.8-19.4-35.8-60.4-21.9-100.5 14.4-36.6 49.2-72.3 86.6-65.1z m-63.5 2.2c-10.3 8.1-19.3 18.2-26.7 29.8-0.7-17.5-8.2-41-32-61.1 21-0.9 42.8 10.6 58.7 31.3zM390.8 434c5.2 5.1 21.2 22.7 24 38.6 5.1 29.1-5.5 54.1 0.8 79.5 0.2 0.8 4.8 17.5 19 32.1 0.5 2.1 1 4.2 1.7 6.2-28.6-3-56.5-27.8-67.8-62.8-12.3-37.7-2.1-75.9 22.3-93.6z" fill="#333333" /><path d="M769.7 601c4.2-111.2-35.5-331.5-37.2-340.9-0.1-0.8-0.4-1.5-0.7-2.3l-0.6-1.5c0.7-2 1.3-4.1 1.3-6.3l4.1-36.8c0-11.7-9.2-21.2-20.4-21.2h-408c-11.3 0-23 8.7-20.3 23.2l6.4 34.8c0.1 2.2 0.5 4.3 1.3 6.3l-1 3.4c-1.8 8.1-44.5 199.6-40.2 311 5 132.2 36 187.8 41.1 196.2l0.4 0.9c-0.5 1.6-1 3.1-1.3 5.1l-7.6 35.6c-2.4 13 8.9 23.5 20.2 23.5h408.5c11.3 0 20.4-9.5 20.4-22.3l-3.5-34.5c0-2.5-0.6-4.8-1.4-7.1 9.9-9.8 33.9-46 38.5-167.1z m-21.8-0.8c-3.1 82.7-15.7 122.2-24.4 140-8.5-22.2-21.9-70.6-25.3-160.4-2.7-70.9 12.4-182.3 23.4-252.1 11.9 75.3 29.1 199.8 26.3 272.5z m-33.3-386.4l-3.8 34.4-394.8 0.6c0-0.7-0.1-1.3-0.2-2l-6.1-33h404.9zM276.1 569.9c-3.8-99.8 32.5-272.3 38.4-299.9H709.1c-7.6 42.5-36.5 211.7-32.7 310.5 3.8 99.7 19.6 151.1 29.1 173.4H313.1c-5.6-9.9-32.5-63.5-37-184z m32.6 240.9l7.2-34c0.1-0.4 0.1-0.7 0.2-1l394.7 0.5 3.4 34-405.5 0.5z" fill="#333333" /></svg>