<svg width="20" height="22" viewBox="0 0 20 22" fill="none" xmlns="http://www.w3.org/2000/svg">
<path d="M7 16V10C7 9.44771 7.44772 9 8 9C8.55228 9 9 9.44771 9 10V16C9 16.5523 8.55228 17 8 17C7.44772 17 7 16.5523 7 16Z" fill="#DF1B1B"/>
<path d="M11 16V10C11 9.44771 11.4477 9 12 9C12.5523 9 13 9.44771 13 10V16C13 16.5523 12.5523 17 12 17C11.4477 17 11 16.5523 11 16Z" fill="#DF1B1B"/>
<path d="M2 19V5C2 4.44772 2.44772 4 3 4C3.55228 4 4 4.44772 4 5V19C4 19.2652 4.10543 19.5195 4.29297 19.707C4.4805 19.8946 4.73478 20 5 20H15C15.2652 20 15.5195 19.8946 15.707 19.707C15.8946 19.5195 16 19.2652 16 19V5C16 4.44772 16.4477 4 17 4C17.5523 4 18 4.44772 18 5V19C18 19.7957 17.6837 20.5585 17.1211 21.1211C16.5585 21.6837 15.7957 22 15 22H5C4.20435 22 3.44151 21.6837 2.87891 21.1211C2.3163 20.5585 2 19.7957 2 19Z" fill="#DF1B1B"/>
<path d="M19 4C19.5523 4 20 4.44772 20 5C20 5.55228 19.5523 6 19 6H1C0.447715 6 0 5.55228 0 5C0 4.44772 0.447715 4 1 4H19Z" fill="#DF1B1B"/>
<path d="M13 5V3C13 2.73478 12.8946 2.48051 12.707 2.29297C12.5195 2.10543 12.2652 2 12 2H8C7.73478 2 7.4805 2.10543 7.29297 2.29297C7.10543 2.48051 7 2.73478 7 3V5C7 5.55228 6.55228 6 6 6C5.44772 6 5 5.55228 5 5V3C5 2.20435 5.3163 1.44151 5.87891 0.878906C6.44152 0.316297 7.20435 0 8 0H12C12.7956 0 13.5585 0.316297 14.1211 0.878906C14.6837 1.44151 15 2.20435 15 3V5C15 5.55228 14.5523 6 14 6C13.4477 6 13 5.55228 13 5Z" fill="#DF1B1B"/>
</svg>
